<svg width="70" height="70" viewBox="0 0 70 70" fill="none" xmlns="http://www.w3.org/2000/svg">
<g clip-path="url(#clip0_242_3805)">
<path d="M61.2434 15.1878C61.2238 15.0227 61.0291 13.545 60.0239 12.5387L48.7113 1.22719C47.7061 0.222031 46.2273 0.02625 46.0622 0.00765625C46.0206 0.0021875 45.9791 0 45.9375 0H14.2188C11.2033 0 8.75 2.45328 8.75 5.46875V64.5312C8.75 67.5467 11.2033 70 14.2188 70H55.7812C58.7967 70 61.25 67.5467 61.25 64.5312V15.3125C61.25 15.2709 61.2478 15.2294 61.2434 15.1878ZM58.4762 14.0853C58.5145 14.1236 58.5419 14.175 58.5758 14.2188H50.3125C48.5034 14.2188 47.0312 12.7466 47.0312 10.9375V2.67422C47.075 2.70812 47.1253 2.73547 47.1647 2.77375L58.4762 14.0853ZM55.7812 67.8125H14.2188C12.4097 67.8125 10.9375 66.3403 10.9375 64.5312V5.46875C10.9375 3.65969 12.4097 2.1875 14.2188 2.1875H44.8438V10.9375C44.8438 13.953 47.297 16.4062 50.3125 16.4062H59.0625V64.5312C59.0625 66.3403 57.5903 67.8125 55.7812 67.8125Z" fill="#515151"/>
<line x1="28" y1="35.25" x2="41" y2="35.25" stroke="#515151" stroke-width="1.5"/>
<line x1="34.75" y1="29" x2="34.75" y2="42" stroke="#515151" stroke-width="1.5"/>
</g>
<defs>
<clipPath id="clip0_242_3805">
<rect width="70" height="70" fill="white"/>
</clipPath>
</defs>
</svg>
