<svg width="103" height="107" viewBox="0 0 103 107" fill="none" xmlns="http://www.w3.org/2000/svg">
<mask id="mask0_242_3765" style="mask-type:alpha" maskUnits="userSpaceOnUse" x="0" y="0" width="103" height="107">
<rect width="102.973" height="106.342" rx="9" fill="#2D2D2D"/>
</mask>
<g mask="url(#mask0_242_3765)">
<rect x="-31.0977" y="-6.73657" width="165.169" height="192.955" fill="#181717"/>
</g>
<g clip-path="url(#clip0_242_3765)">
<path d="M75.038 43.0039C75.3468 43.2988 75.5595 43.4565 75.683 43.4908C75.779 43.5114 75.9368 43.3605 76.1495 43.0245C76.3348 42.7295 76.4377 42.5169 76.4514 42.3866C76.0809 41.7831 75.7584 41.399 75.484 41.2344C75.4291 41.2687 75.2713 41.4333 75.0106 41.742C74.7224 42.0849 74.5852 42.3043 74.592 42.3935C74.5852 42.5101 74.7361 42.7158 75.038 43.0039Z" fill="white" fill-opacity="0.5"/>
<path d="M77.6528 43.2233C77.838 43.2508 78.0576 43.0862 78.3046 42.7158C78.5036 42.4278 78.6202 42.2289 78.6408 42.1329C78.6408 41.9546 78.5036 41.7145 78.236 41.4059C77.9684 41.0973 77.8037 40.9395 77.7282 40.9189C77.5842 40.9601 77.2548 41.3236 76.7402 42.0094C76.7951 42.2014 76.9255 42.4346 77.1176 42.7158C77.3097 43.0039 77.4881 43.1685 77.6528 43.2233Z" fill="white" fill-opacity="0.5"/>
<path d="M22.1109 42.0231C22.4197 42.318 22.6324 42.4758 22.7559 42.5101C22.8519 42.5306 23.0097 42.3798 23.2224 42.0437C23.4077 41.7488 23.5106 41.5362 23.5243 41.4059C23.1538 40.8023 22.8313 40.4183 22.5569 40.2468C22.502 40.2811 22.3442 40.4457 22.0835 40.7543C21.7953 41.0973 21.6581 41.3167 21.6649 41.4059C21.6512 41.5225 21.8021 41.7282 22.1109 42.0231Z" fill="white" fill-opacity="0.5"/>
<path d="M24.7182 42.2357C24.9034 42.2632 25.123 42.0986 25.37 41.7282C25.569 41.4402 25.6856 41.2413 25.7062 41.1453C25.7062 40.9669 25.569 40.7269 25.3014 40.4183C25.0338 40.1097 24.8691 39.9519 24.7937 39.9313C24.6564 39.9793 24.3271 40.3428 23.8125 41.0287C23.8674 41.2207 23.9978 41.4539 24.1899 41.7351C24.3751 42.0163 24.5535 42.1877 24.7182 42.2357Z" fill="white" fill-opacity="0.5"/>
<path d="M50.5922 42.2357C50.7775 42.2632 50.997 42.0986 51.244 41.7282C51.443 41.4402 51.5597 41.2413 51.5802 41.1453C51.5802 40.9669 51.443 40.7269 51.1754 40.4183C50.9078 40.1097 50.7432 39.9519 50.6677 39.9313C50.5236 39.9725 50.1943 40.336 49.6797 41.0218C49.7346 41.2138 49.8649 41.447 50.0571 41.7282C50.2492 42.0163 50.4276 42.1877 50.5922 42.2357Z" fill="white" fill-opacity="0.5"/>
<path d="M77.721 43.9366C76.8908 43.8406 75.944 43.7445 74.9765 44.6567C73.4877 46.0626 73.3093 48.1613 74.016 48.9157C74.8325 49.7867 76.2047 49.3958 76.5889 49.3135C77.0624 49.2106 77.4603 49.0117 77.4672 48.998C77.5701 48.8128 77.4397 48.6345 77.3162 48.6071C77.2956 48.6002 76.8428 48.8128 76.4997 48.7923C75.7313 48.7511 75.2784 48.3876 75.052 47.9212C74.6266 47.0365 75.0589 45.2122 75.4774 45.0133C75.7038 44.9104 77.2751 44.7733 77.7759 45.5346C78.1464 46.1038 78.0984 46.9268 78.0984 47.7224C78.0984 49.4918 77.8514 50.3697 77.1996 50.788C76.7605 51.0692 75.6764 51.2132 74.7021 51.2887C74.7021 51.2887 69.4053 51.4533 65.8717 51.4601C63.0586 51.467 60.2867 51.1858 58.7772 51.0212C58.3038 50.9663 58.0294 50.8566 57.9333 50.7606C57.5971 50.4245 57.6314 49.9033 57.6314 49.6701V42.7912C57.6314 41.9614 57.6863 41.0218 57.7069 40.4594C57.6795 40.384 57.604 40.3497 57.5285 40.3497C56.8492 40.7063 56.5405 40.9121 56.1014 41.1384C55.8201 41.2824 55.5456 41.7556 55.8132 42.2426C56.0122 42.6061 56.2523 42.4689 56.2592 42.6815C56.2592 42.6815 56.3758 45.5208 56.3621 46.6113C56.3484 47.7086 56.2523 51.1309 56.2523 51.1309C56.218 51.8716 56.1014 52.3723 56.4925 52.3929C56.7738 52.4066 56.8836 52.0568 57.1443 52.0842C57.7275 52.146 62.1667 52.6192 65.7276 52.6192C68.2388 52.6192 73.6798 52.5643 75.8548 52.1048C76.6027 51.9471 77.2751 51.563 77.8377 51.1241C78.7914 50.3834 79.4089 49.5741 79.4089 48.2642C79.4089 47.1668 79.4089 46.5702 79.4089 46.0352C79.3952 45.2739 78.9149 44.0737 77.721 43.9366Z" fill="white" fill-opacity="0.5"/>
<path d="M52.0739 43.9366C51.2437 43.8406 50.2969 43.7445 49.3294 44.6567C47.8406 46.0626 47.6622 48.1613 48.3689 48.9157C49.1854 49.7867 50.5576 49.3958 50.9418 49.3135C51.4152 49.2106 51.8132 49.0117 51.8201 48.998C51.923 48.8128 51.7926 48.6345 51.6691 48.6071C51.6485 48.6002 51.1957 48.8128 50.8526 48.7923C50.0842 48.7511 49.6313 48.3876 49.4049 47.9212C48.9795 47.0365 49.4118 45.2122 49.8303 45.0133C50.0567 44.9104 51.6279 44.7733 52.1288 45.5346C52.4993 46.1038 52.4513 46.9268 52.4513 47.7224C52.4513 49.4918 52.2043 50.3697 51.5525 50.788C51.1134 51.0692 50.0293 51.2132 49.055 51.2887C49.055 51.2887 40.801 51.4533 37.2674 51.4601C35.264 51.4601 34.276 51.2887 33.3771 51.1515C32.7939 51.0624 32.5401 50.9595 32.2862 50.7606C31.9157 50.4657 31.9843 49.5741 31.9843 49.3409V42.7912C31.9843 41.9614 32.0392 41.0218 32.0598 40.4594C32.0255 40.384 31.95 40.3497 31.8745 40.3497C31.1953 40.7063 30.8865 40.9121 30.4474 41.1384C30.1661 41.2824 29.8917 41.7556 30.1592 42.2426C30.3582 42.6061 30.5984 42.4689 30.6052 42.6815C30.6052 42.6815 30.7219 45.5208 30.7081 46.6113C30.7013 47.3383 30.6532 48.5796 30.6258 49.3341C30.5092 50.1708 30.2553 50.6577 29.8093 50.9458C29.3702 51.227 28.5743 51.3161 28.094 51.2818C27.504 51.2407 26.9551 51.1172 26.7012 50.9183C26.3307 50.6234 26.3993 49.7318 26.3993 49.4987V44.5744C26.4199 43.9571 26.4473 43.3468 26.4611 42.9353C26.4267 42.8598 26.3513 42.8255 26.2758 42.8255C25.5965 43.1822 25.3015 43.4291 24.8487 43.6142C24.7389 43.6554 24.9653 43.964 25.0408 44.6155C25.0545 44.7801 25.0682 44.9927 25.0751 45.2259C25.0271 45.5894 24.6909 45.8432 24.6909 45.8432C24.3684 46.0352 23.5793 46.5359 22.7011 47.1874C22.1522 47.592 21.4524 48.1544 20.9652 48.7511C20.5261 49.2792 20.6084 50.7674 21.1093 51.4121C21.5073 51.9334 22.1385 52.434 22.9207 52.2969C23.648 52.1665 24.5193 51.2955 24.8349 51.0281C24.883 50.9869 24.9859 50.8703 25.0339 50.8772C25.0408 50.8772 25.0408 50.8772 25.0408 50.8772C25.1163 51.3916 25.3427 51.8854 25.8984 52.2488C26.5297 52.6672 28.0391 52.6878 28.9105 52.482C29.6515 52.3037 30.2073 51.7756 30.5572 51.3298C30.6601 51.1995 30.7562 51.0761 30.8522 50.9595C31.0855 51.3847 31.456 51.7825 31.9226 52.0911C32.5607 52.5095 33.5487 52.626 37.1096 52.626C39.6208 52.626 48.0189 52.5712 50.194 52.1117C50.9418 51.9539 51.6142 51.5699 52.1768 51.1309C53.1305 50.3902 53.7481 49.581 53.7481 48.271C53.7481 47.1737 53.7481 46.5702 53.7481 46.0421C53.7481 45.2739 53.2678 44.0737 52.0739 43.9366ZM24.3341 50.6989C23.792 51.0692 22.6943 51.1584 22.1797 50.6851C21.6925 50.2325 21.7543 49.2518 22.1591 48.6345C22.6599 47.8664 23.9704 46.8925 24.5948 46.529C24.7114 46.4604 24.8281 46.4673 24.883 46.5016C24.9173 46.5222 25.0339 46.625 25.0339 46.8308C25.0339 47.3383 25.0339 48.8677 25.0339 49.6564C25.0271 49.7867 25.0271 49.8896 25.0202 49.9719C24.9653 50.2256 24.7183 50.4314 24.3341 50.6989Z" fill="white" fill-opacity="0.5"/>
<path d="M30.9685 64.7927C30.9685 65.4992 31.0714 65.9312 31.3802 66.0547C31.4282 66.1095 31.4282 66.2124 31.3665 66.2673C31.1606 66.2673 30.8519 66.3359 30.5294 66.425C29.6237 66.6719 28.3956 66.8845 27.4693 66.8845C25.4384 66.8845 23.5721 66.3016 22.2616 64.9162C21.2393 63.8532 20.6904 62.4472 20.6904 60.8904C20.6904 59.3815 21.1707 57.859 22.2273 56.6862C23.3732 55.4449 25.061 54.6082 27.6408 54.6082C28.6151 54.6082 29.5208 54.8002 29.809 54.8756C30.1314 54.9442 30.6598 55.0677 30.8656 55.0334C30.8656 55.6163 30.9685 56.5422 31.1195 57.6052C31.0714 57.7493 30.7627 57.763 30.6598 57.6601C30.1795 55.7466 28.9033 55.1431 27.1605 55.1431C23.8466 55.1431 22.3989 57.5915 22.3989 60.2525C22.3989 63.6611 24.0867 66.3359 27.5242 66.3359C28.5808 66.3359 29.212 66.1027 29.4042 65.8009C29.4865 65.6775 29.5757 65.3551 29.5757 64.7927V64.0795C29.5757 62.5912 29.5277 62.4815 28.4642 62.358L27.7094 62.2689C27.5722 62.2003 27.5928 61.878 27.7094 61.8231C28.2034 61.8574 29.1434 61.878 30.152 61.878C30.8176 61.878 31.4008 61.8574 31.9634 61.8231C32.08 61.8917 32.1006 62.1592 31.9771 62.2689L31.7027 62.3032C30.9822 62.3923 30.9685 62.8861 30.9685 63.7914V64.7927Z" fill="white" fill-opacity="0.5"/>
<path d="M41.4319 62.4883C41.3153 62.0974 41.2467 62.0425 40.7321 62.0425H38.1523C37.7269 62.0425 37.624 62.0974 37.5005 62.4678L36.9035 64.3332C36.6497 65.1288 36.5262 65.6089 36.5262 65.8078C36.5262 66.0204 36.6085 66.1301 37.0202 66.1644L37.5828 66.2193C37.6994 66.3084 37.6994 66.5896 37.5485 66.665C37.1025 66.6308 36.5742 66.6308 35.7714 66.6102C35.2088 66.6102 34.5913 66.6445 34.1316 66.665C34.0287 66.5965 33.9944 66.3084 34.0973 66.2193L34.6599 66.1644C35.0716 66.1301 35.4421 65.9312 35.6822 65.2934C35.991 64.4772 36.4713 63.325 37.1848 61.3361L38.9276 56.549C39.1677 55.9112 39.2706 55.5752 39.2158 55.2871C39.6274 55.1637 39.9156 54.8413 40.1009 54.615C40.2038 54.615 40.3204 54.6493 40.3547 54.7727C40.5743 55.5546 40.8487 56.3707 41.1094 57.1526L43.4491 64.2852C43.9431 65.8078 44.1695 66.0752 44.9037 66.1644L45.3634 66.2193C45.48 66.3084 45.4457 66.5896 45.3634 66.665C44.6636 66.6308 44.0666 66.6102 43.2982 66.6102C42.4817 66.6102 41.8299 66.6445 41.3359 66.665C41.1986 66.5965 41.1849 66.3084 41.3016 66.2193L41.7956 66.1644C42.1524 66.1301 42.3925 66.0204 42.3925 65.842C42.3925 65.65 42.3102 65.3277 42.1729 64.9025L41.4319 62.4883ZM38.0494 60.9041C37.9121 61.3156 37.9327 61.3293 38.4061 61.3293H40.5057C40.9997 61.3293 41.034 61.2607 40.883 60.7806L39.9636 57.8864C39.8264 57.4612 39.6755 56.9811 39.5725 56.7685H39.5382C39.4902 56.8577 39.3187 57.2829 39.1266 57.8178L38.0494 60.9041Z" fill="white" fill-opacity="0.5"/>
<path d="M50.3236 59.793C50.3236 60.28 50.3717 60.28 50.8862 60.28H52.0458C52.7456 60.28 53.2945 60.2457 53.5004 60.1702C53.6856 60.1017 53.8228 60.0056 53.9258 59.5393L54.0767 58.8192C54.159 58.7094 54.4541 58.7094 54.5227 58.8192C54.5227 59.2512 54.4541 59.9714 54.4541 60.6366C54.4541 61.2882 54.5227 61.9671 54.5227 62.3855C54.4541 62.4952 54.2002 62.4952 54.0767 62.3855L53.9052 61.6859C53.8228 61.3636 53.6856 61.1098 53.3563 61.0001C53.1161 60.9247 52.6907 60.9109 52.0389 60.9109H50.8794C50.3648 60.9109 50.3168 60.9315 50.3168 61.3979V63.9012C50.3168 65.7941 50.3511 66.0615 51.3597 66.1507L51.9429 66.2056C52.0458 66.281 52.0115 66.6033 51.9086 66.6582C50.9 66.6239 50.3236 66.6033 49.6375 66.6033C48.8828 66.6033 48.3064 66.6239 47.5037 66.6582C47.4008 66.6033 47.3665 66.3153 47.4694 66.2056L47.8948 66.1507C48.8828 66.0272 48.9171 65.7872 48.9171 63.9012V57.4201C48.9171 55.5272 48.8828 55.2803 47.8948 55.15L47.6203 55.1157C47.5174 55.0471 47.5517 54.7179 47.6546 54.663C48.375 54.6973 48.9514 54.7179 49.6375 54.7179H52.7799C53.8709 54.7179 54.8657 54.7179 55.0853 54.663C55.0853 55.4929 55.099 56.357 55.1333 57.0429C55.0853 57.1526 54.8452 57.2075 54.7217 57.0977C54.5844 56.2884 54.3786 55.6232 53.5278 55.39C53.1504 55.2803 52.5878 55.2803 51.8743 55.2803H50.8314C50.3168 55.2803 50.3168 55.3146 50.3168 56.0004V59.793H50.3236Z" fill="white" fill-opacity="0.5"/>
<path d="M58.7426 57.4201C58.7426 55.5272 58.7083 55.2391 57.6311 55.15L57.2057 55.1157C57.1028 55.0471 57.1371 54.7179 57.24 54.663C58.1937 54.6973 58.7769 54.7179 59.4631 54.7179C60.1286 54.7179 60.7118 54.6973 61.5626 54.663C61.6655 54.7179 61.6998 55.0402 61.5969 55.1157L61.1852 55.15C60.1766 55.2391 60.1423 55.5272 60.1423 57.4201V63.6886C60.1423 64.8202 60.1903 65.2934 60.4991 65.6363C60.6844 65.8352 61.0137 66.0478 62.3585 66.0478C63.8131 66.0478 64.1698 65.9724 64.4443 65.8146C64.7874 65.5952 65.2333 64.9505 65.5695 64.0315C65.6724 63.9423 65.9949 64.0109 65.9949 64.1412C65.9949 64.3401 65.5146 66.1781 65.2745 66.6651C64.4031 66.6308 62.7839 66.6102 61.0206 66.6102H59.4562C58.7358 66.6102 58.1937 66.6308 57.2332 66.6651C57.1302 66.6102 57.0959 66.3222 57.1989 66.2124L57.7135 66.1576C58.7015 66.0478 58.7358 65.7941 58.7358 63.908V57.4201H58.7426Z" fill="white" fill-opacity="0.5"/>
<path d="M75.3675 62.4883C75.2508 62.0974 75.1822 62.0425 74.6676 62.0425H72.0878C71.6624 62.0425 71.5595 62.0974 71.436 62.4678L70.8391 64.3332C70.5852 65.1288 70.4617 65.6089 70.4617 65.8078C70.4617 66.0204 70.544 66.1301 70.9557 66.1644L71.5183 66.2193C71.635 66.3084 71.635 66.5896 71.484 66.665C71.0381 66.6308 70.5097 66.6308 69.707 66.6102C69.1444 66.6102 68.5269 66.6445 68.0672 66.665C67.9642 66.5965 67.9299 66.3084 68.0328 66.2193L68.5955 66.1644C69.0071 66.1301 69.3776 65.9312 69.6178 65.2934C69.9265 64.4772 70.4 63.325 71.1204 61.3361L72.8631 56.549C73.1033 55.9112 73.2062 55.5752 73.1513 55.2871C73.563 55.1637 73.8511 54.8413 74.0364 54.615C74.1393 54.615 74.256 54.6493 74.2903 54.7727C74.5098 55.5546 74.7843 56.3707 75.045 57.1526L77.3847 64.2852C77.8787 65.8078 78.1051 66.0752 78.8392 66.1644L79.2989 66.2193C79.4156 66.3084 79.3813 66.5896 79.2989 66.665C78.5991 66.6308 78.0022 66.6102 77.2337 66.6102C76.4172 66.6102 75.7654 66.6445 75.2714 66.665C75.1342 66.5965 75.1205 66.3084 75.2371 66.2193L75.7311 66.1644C76.0879 66.1301 76.328 66.0204 76.328 65.842C76.328 65.65 76.2457 65.3277 76.1085 64.9025L75.3675 62.4883ZM71.9918 60.9041C71.8545 61.3156 71.8751 61.3293 72.3485 61.3293H74.4481C74.9421 61.3293 74.9764 61.2607 74.8254 60.7806L73.906 57.8864C73.7688 57.4612 73.6179 56.9811 73.5149 56.7685H73.4806C73.4326 56.8577 73.2611 57.2829 73.069 57.8178L71.9918 60.9041Z" fill="white" fill-opacity="0.5"/>
</g>
<defs>
<clipPath id="clip0_242_3765">
<rect width="58.7045" height="26.9463" fill="white" transform="translate(20.6904 39.9382)"/>
</clipPath>
</defs>
</svg>
