<svg width="51" height="51" viewBox="0 0 51 51" fill="none" xmlns="http://www.w3.org/2000/svg">
<g clip-path="url(#clip0_241_3340)">
<path d="M50.7408 28.7271C50.6493 29.3681 50.5319 30.0024 50.3948 30.6367C50.3491 30.846 50.3033 31.0488 50.2577 31.2579C50.1859 31.5325 50.1207 31.8073 50.0423 32.0753L49.8464 32.8012L49.7812 33.0366H49.7747C48.1617 38.2371 44.9316 42.7851 40.556 46.0167C36.1804 49.2483 30.8882 50.9943 25.452 51C11.4172 51 0 39.5628 0 25.5033C0 11.4372 11.4172 0 25.452 0C28.9389 0.00704122 32.3875 0.729588 35.5849 2.12308C38.7824 3.51658 41.661 5.55147 44.0432 8.10228L44.944 9.07008L43.9714 9.95949L36.1706 17.1134L35.0871 18.0878L34.5191 17.4535L34.1339 17.0611C33.0114 15.8891 31.6633 14.9573 30.171 14.3223C28.6787 13.6872 27.0733 13.3621 25.452 13.3664C23.4016 13.3658 21.3846 13.8866 19.59 14.88C17.7953 15.8735 16.2818 17.307 15.1912 19.0464C14.1007 20.7858 13.4687 22.774 13.3546 24.8248C13.2405 26.8757 13.648 28.9219 14.5388 30.7719C15.4297 32.6219 16.7748 34.2151 18.4481 35.4022C20.1214 36.5892 22.0682 37.3314 24.1059 37.559C26.1437 37.7866 28.2058 37.4923 30.0991 36.7036C31.9923 35.9149 33.6546 34.6576 34.9304 33.0496L27.8542 33.0562L24.9036 33.0627L26.8816 30.8722L34.6823 22.2336L35.074 21.8021H35.6549L49.6311 21.8283H50.8452L50.9301 23.0381C51.0665 24.9358 51.003 26.8427 50.7408 28.7271Z" fill="white"/>
</g>
<defs>
<clipPath id="clip0_241_3340">
<rect width="51" height="51" fill="white"/>
</clipPath>
</defs>
</svg>
