<svg width="133" height="61" viewBox="0 0 133 61" fill="none" xmlns="http://www.w3.org/2000/svg">
<mask id="mask0_241_3530" style="mask-type:alpha" maskUnits="userSpaceOnUse" x="0" y="0" width="133" height="61">
<rect width="133" height="61" fill="#D6DCDC"/>
</mask>
<g mask="url(#mask0_241_3530)">
<path d="M117.558 54.0051C117.402 55.0985 117.201 56.1806 116.968 57.2626C116.89 57.6196 116.812 57.9655 116.734 58.3223C116.611 58.7907 116.5 59.2594 116.366 59.7167L116.032 60.9551L115.921 61.3565H115.91C113.158 70.228 107.648 77.9863 100.184 83.499C92.7195 89.0118 83.6917 91.9903 74.4181 92C50.4764 92 31 72.4894 31 48.5056C31 24.5106 50.4764 5 74.4182 5C80.3665 5.01201 86.2493 6.24459 91.7038 8.62173C97.1583 10.9989 102.069 14.4702 106.133 18.8215L107.669 20.4725L106.01 21.9897L92.7029 34.1935L90.8545 35.8557L89.8856 34.7736L89.2285 34.1042C87.3137 32.1049 85.0139 30.5154 82.4682 29.4321C79.9226 28.3488 77.184 27.7941 74.4182 27.8016C70.9204 27.8005 67.4796 28.6889 64.4182 30.3836C61.3568 32.0783 58.7749 34.5238 56.9145 37.4909C55.0541 40.4581 53.9761 43.8498 53.7814 47.3482C53.5868 50.8467 54.2819 54.3374 55.8016 57.4933C57.3213 60.6492 59.6159 63.3669 62.4704 65.3919C65.3248 67.4169 68.6458 68.6829 72.122 69.0712C75.5982 69.4595 79.1159 68.9574 82.3455 67.612C85.5751 66.2666 88.4109 64.1219 90.5872 61.3788L78.516 61.39L73.4827 61.4011L76.8568 57.6643L90.1639 42.9279L90.8322 42.1918H91.8232L115.665 42.2365H117.736L117.881 44.3003C118.113 47.5376 118.005 50.7905 117.558 54.0051Z" fill="white"/>
</g>
</svg>
