<svg width="139" height="21" viewBox="0 0 139 21" fill="none" xmlns="http://www.w3.org/2000/svg">
<g clip-path="url(#clip0_241_3447)">
<path d="M0.0557175 8.05559C0.193188 7.63036 0.570349 7.32835 1.01657 7.28813L7.07774 6.73777L9.47449 1.12794C9.65122 0.716811 10.0537 0.450684 10.5009 0.450684C10.948 0.450684 11.3505 0.716811 11.5272 1.1289L13.924 6.73777L19.9861 7.28813C20.4316 7.32931 20.8078 7.63036 20.946 8.05559C21.0843 8.48082 20.9566 8.94722 20.6197 9.24123L16.0381 13.2593L17.3891 19.2104C17.488 19.6479 17.3181 20.1002 16.9551 20.3627C16.7599 20.5037 16.5316 20.5755 16.3014 20.5755C16.1029 20.5755 15.9059 20.5219 15.7292 20.4162L10.5009 17.2914L5.27445 20.4162C4.892 20.6463 4.40989 20.6253 4.04763 20.3627C3.68441 20.0994 3.51474 19.647 3.61359 19.2104L4.96458 13.2593L0.383049 9.24203C0.0461044 8.94722 -0.0825539 8.48162 0.0557175 8.05559Z" fill="#00BEC5"/>
</g>
<g clip-path="url(#clip1_241_3447)">
<path d="M29.9649 8.05559C30.1024 7.63036 30.4795 7.32835 30.9257 7.28813L36.9869 6.73777L39.3837 1.12794C39.5604 0.716811 39.9629 0.450684 40.4101 0.450684C40.8572 0.450684 41.2597 0.716811 41.4364 1.1289L43.8332 6.73777L49.8953 7.28813C50.3407 7.32931 50.7169 7.63036 50.8552 8.05559C50.9935 8.48082 50.8658 8.94722 50.5288 9.24123L45.9473 13.2593L47.2983 19.2104C47.3971 19.6479 47.2273 20.1002 46.8642 20.3627C46.6691 20.5037 46.4408 20.5755 46.2105 20.5755C46.012 20.5755 45.8151 20.5219 45.6384 20.4162L40.4101 17.2914L35.1836 20.4162C34.8012 20.6463 34.3191 20.6253 33.9568 20.3627C33.5936 20.0994 33.4239 19.647 33.5228 19.2104L34.8738 13.2593L30.2922 9.24203C29.9553 8.94722 29.8266 8.48162 29.9649 8.05559Z" fill="#00BEC5"/>
</g>
<g clip-path="url(#clip2_241_3447)">
<path d="M59.2374 8.05559C59.3748 7.63036 59.752 7.32835 60.1982 7.28813L66.2594 6.73777L68.6561 1.12794C68.8329 0.716811 69.2353 0.450684 69.6825 0.450684C70.1297 0.450684 70.5322 0.716811 70.7089 1.1289L73.1056 6.73777L79.1678 7.28813C79.6132 7.32931 79.9894 7.63036 80.1277 8.05559C80.2659 8.48082 80.1382 8.94722 79.8013 9.24123L75.2198 13.2593L76.5707 19.2104C76.6696 19.6479 76.4998 20.1002 76.1367 20.3627C75.9416 20.5037 75.7132 20.5755 75.483 20.5755C75.2845 20.5755 75.0876 20.5219 74.9109 20.4162L69.6825 17.2914L64.4561 20.4162C64.0736 20.6463 63.5915 20.6253 63.2293 20.3627C62.8661 20.0994 62.6964 19.647 62.7952 19.2104L64.1462 13.2593L59.5647 9.24203C59.2277 8.94722 59.0991 8.48162 59.2374 8.05559Z" fill="#00BEC5"/>
</g>
<g clip-path="url(#clip3_241_3447)">
<path d="M88.5108 8.05559C88.6483 7.63036 89.0254 7.32835 89.4716 7.28813L95.5328 6.73777L97.9296 1.12794C98.1063 0.716811 98.5088 0.450684 98.9559 0.450684C99.4031 0.450684 99.8056 0.716811 99.9823 1.1289L102.379 6.73777L108.441 7.28813C108.887 7.32931 109.263 7.63036 109.401 8.05559C109.539 8.48082 109.412 8.94722 109.075 9.24123L104.493 13.2593L105.844 19.2104C105.943 19.6479 105.773 20.1002 105.41 20.3627C105.215 20.5037 104.987 20.5755 104.756 20.5755C104.558 20.5755 104.361 20.5219 104.184 20.4162L98.9559 17.2914L93.7295 20.4162C93.3471 20.6463 92.865 20.6253 92.5027 20.3627C92.1395 20.0994 91.9698 19.647 92.0687 19.2104L93.4197 13.2593L88.8381 9.24203C88.5012 8.94722 88.3725 8.48162 88.5108 8.05559Z" fill="#00BEC5"/>
</g>
<g clip-path="url(#clip4_241_3447)">
<path d="M117.783 8.05559C117.921 7.63036 118.298 7.32835 118.744 7.28813L124.805 6.73777L127.202 1.12794C127.379 0.716811 127.781 0.450684 128.228 0.450684C128.676 0.450684 129.078 0.716811 129.255 1.1289L131.652 6.73777L137.714 7.28813C138.159 7.32931 138.535 7.63036 138.674 8.05559C138.812 8.48082 138.684 8.94722 138.347 9.24123L133.766 13.2593L135.117 19.2104C135.216 19.6479 135.046 20.1002 134.683 20.3627C134.487 20.5037 134.259 20.5755 134.029 20.5755C133.83 20.5755 133.633 20.5219 133.457 20.4162L128.228 17.2914L123.002 20.4162C122.62 20.6463 122.137 20.6253 121.775 20.3627C121.412 20.0994 121.242 19.647 121.341 19.2104L122.692 13.2593L118.111 9.24203C117.774 8.94722 117.645 8.48162 117.783 8.05559Z" fill="white" fill-opacity="0.21"/>
</g>
<defs>
<clipPath id="clip0_241_3447">
<rect width="21" height="21" fill="white" transform="matrix(-1 0 0 1 21.001 0)"/>
</clipPath>
<clipPath id="clip1_241_3447">
<rect width="21" height="21" fill="white" transform="matrix(-1 0 0 1 50.9102 0)"/>
</clipPath>
<clipPath id="clip2_241_3447">
<rect width="21" height="21" fill="white" transform="matrix(-1 0 0 1 80.1826 0)"/>
</clipPath>
<clipPath id="clip3_241_3447">
<rect width="21" height="21" fill="white" transform="matrix(-1 0 0 1 109.456 0)"/>
</clipPath>
<clipPath id="clip4_241_3447">
<rect width="21" height="21" fill="white" transform="matrix(-1 0 0 1 138.729 0)"/>
</clipPath>
</defs>
</svg>
